PathFileType	4	(X/Y/Z)	E:\Qualisys_Data\Carbon_Farble_Plate\Data\Amateur_Runner\S2\T3\S2T3V21_c3d.trc
DataRate	CameraRate	NumFrames	NumMarkers	Units	OrigDataRate	OrigDataStartFrame	OrigNumFrames
200.000000	200.000000	4	39	mm	200.000000	75	301
Frame#	Time	LSHO			RSHO			LICST			RICST			LASIS			LHEEL			RASIS			LTROC			RTROC			SACR			LTH1			LSK4			LTH2			LTH3			RHM5			LSK2			LTH4			RTH1			LTOE			RTH2			RTH3			RTH4			LLEP			RLEP			LSK1			LSK3			RSK1			LHM5			RSK2			LFT1			RSK3			RSK4			LLME			RLME			RTOE			RHEEL			RFT1			RFT2			LFT2			
		X1	Y1	Z1	X2	Y2	Z2	X3	Y3	Z3	X4	Y4	Z4	X5	Y5	Z5	X6	Y6	Z6	X7	Y7	Z7	X8	Y8	Z8	X9	Y9	Z9	X10	Y10	Z10	X11	Y11	Z11	X12	Y12	Z12	X13	Y13	Z13	X14	Y14	Z14	X15	Y15	Z15	X16	Y16	Z16	X17	Y17	Z17	X18	Y18	Z18	X19	Y19	Z19	X20	Y20	Z20	X21	Y21	Z21	X22	Y22	Z22	X23	Y23	Z23	X24	Y24	Z24	X25	Y25	Z25	X26	Y26	Z26	X27	Y27	Z27	X28	Y28	Z28	X29	Y29	Z29	X30	Y30	Z30	X31	Y31	Z31	X32	Y32	Z32	X33	Y33	Z33	X34	Y34	Z34	X35	Y35	Z35	X36	Y36	Z36	X37	Y37	Z37	X38	Y38	Z38	X39	Y39	Z39	

76	0.375	-1386.73779296875	1502.2333984375	-478.9309387207031	-1270.630493164062	1483.446655273438	-198.8673248291016	-1384.71240234375	1040.9404296875	-474.4910278320312	-1326.373046875	1020.9931640625	-181.5067596435547	-1325.8896484375	991.2791137695312	-461.8182373046875	-1241.279174804688	106.6070785522461	-369.9853820800781	-1279.034423828125	968.0073852539062	-212.1120452880859	-1446.6328125	916.3162841796876	-476.1127624511719	-1435.284423828125	944.0799560546876	-158.5195465087891	-1449.556640625	1075.1767578125	-304.920654296875	-1248.8125	695.4736328125	-499.2848510742188	-1261.938842773438	314.1358947753906	-459.0525207519531	-1330.216430664062	671.0560913085938	-489.5709838867188	-1217.672607421875	600.5316162109375	-472.1156311035156	-1956.13427734375	270.6753234863281	-169.0866394042969	-1271.873046875	411.7831115722656	-473.7444458007812	-1299.353393554688	578.2807006835938	-461.7417907714844	-1414.550903320312	655.7891845703125	-176.0987701416016	-1007.180236816406	185.8838500976562	-412.3599243164062	-1483.09521484375	690.5850830078125	-164.3678588867188	-1460.907470703125	566.2847900390625	-185.5785675048828	-1531.723876953125	605.8630981445312	-180.9208526611328	-1243.509033203125	548.879150390625	-461.6019897460938	-1528.305908203125	564.0863647460938	-176.3183441162109	-1195.255737304688	420.8004150390625	-467.1735229492188	-1183.983764648438	322.1266174316406	-456.1935119628906	-1622.168212890625	481.8976135253906	-165.6551208496094	-1060.454467773438	136.3073883056641	-462.4893188476562	-1652.981079101562	555.2752685546875	-159.4885711669922	-1218.860229492188	87.1665267944336	-341.5260314941406	-1715.821411132812	441.3571472167969	-167.9131317138672	-1744.145263671875	515.6176147460938	-168.9140319824219	-1190.771606445312	138.7988891601562	-428.6605834960938	-1904.684448242188	399.3925476074219	-188.3019409179688	-1927.656982421875	206.0321807861328	-222.7031097412109	-1916.529418945312	455.8995361328125	-246.7551422119141	-1938.409301757812	443.3843688964844	-281.1322326660156	-1945.287109375	457.5189208984375	-230.8705139160156	-1230.163208007812	74.3160400390625	-391.0333251953125
77	0.38	-1366.814819335938	1498.847900390625	-480.0401000976562	-1250.7646484375	1480.9287109375	-199.9126892089844	-1366.202026367188	1038.767944335938	-475.0118103027344	-1308.036499023438	1018.161987304688	-181.8416748046875	-1306.935668945312	988.7257080078124	-461.881591796875	-1220.881225585938	104.412223815918	-369.1869506835938	-1259.374633789062	966.0106201171876	-212.3026580810547	-1427.552490234375	914.0132446289062	-475.5427856445312	-1415.326904296875	940.3907470703124	-158.6979064941406	-1430.422119140625	1072.728637695312	-304.6661987304688	-1230.911743164062	691.6158447265625	-500.615966796875	-1241.951904296875	311.470703125	-458.4971008300781	-1311.80615234375	666.4358520507812	-490.89990234375	-1199.348876953125	597.17626953125	-472.3291015625	-1938.831909179688	280.9261474609375	-167.8288421630859	-1252.174682617188	408.845703125	-472.9048767089844	-1280.52783203125	574.7144165039062	-461.5515747070312	-1392.559326171875	652.7960815429688	-175.3678588867188	-987.1124267578124	184.5325622558594	-410.1954040527344	-1461.56787109375	686.292724609375	-164.3063049316406	-1436.884765625	563.1195678710938	-184.1642456054688	-1508.735473632812	600.728515625	-180.9870758056641	-1225.013061523438	546.3042602539062	-461.1138305664062	-1504.470703125	560.587890625	-175.7092590332031	-1175.738525390625	418.4697875976562	-466.051513671875	-1164.101806640625	319.6595458984375	-455.2677917480469	-1599.054077148438	480.4070434570312	-165.4247589111328	-1039.94775390625	135.3918304443359	-460.7109985351562	-1627.800659179688	554.9483642578125	-160.5775299072266	-1198.7236328125	83.90744018554688	-341.2536010742188	-1695.244995117188	442.9231872558594	-168.2616119384766	-1720.368286132812	518.0897827148438	-169.9606628417969	-1170.036254882812	136.4621887207031	-427.4611511230469	-1884.991943359375	407.4599304199219	-188.9962310791016	-1913.650146484375	214.1502227783203	-219.6973571777344	-1893.861083984375	463.4346008300781	-248.7378387451172	-1916.943237304688	451.3202209472656	-282.6741027832031	-1923.474243164062	465.6755676269531	-231.2520599365234	-1209.693359375	71.36730194091797	-390.6784057617188
78	0.385	-1347.428833007812	1495.728759765625	-481.1822509765625	-1230.975463867188	1478.41015625	-200.9409027099609	-1347.25341796875	1036.49560546875	-474.4424743652344	-1289.116455078125	1016.013244628906	-181.8631591796875	-1288.472534179688	986.7886962890624	-462.2453002929688	-1201.648071289062	101.414665222168	-368.5750732421875	-1240.595581054688	963.8924560546876	-211.7524566650391	-1408.53662109375	911.2841186523438	-475.8486633300781	-1396.123657226562	936.5689086914062	-159.2260437011719	-1411.560302734375	1069.875366210938	-304.7601928710938	-1212.754150390625	688.1522827148438	-501.2268981933594	-1223.956909179688	308.5890502929688	-458.3580017089844	-1293.772216796875	662.3483276367188	-492.6718139648438	-1181.172729492188	594.3991088867188	-471.0965576171875	-1919.9365234375	289.9263305664062	-167.1103668212891	-1233.259399414062	406.1070556640625	-472.6548156738281	-1262.159790039062	570.9898681640625	-461.7759094238281	-1369.670043945312	649.4176025390625	-173.4542999267578	-968.528564453125	182.7170867919922	-408.1557006835938	-1439.180297851562	681.8611450195312	-164.1582183837891	-1412.82373046875	558.556640625	-183.4993286132812	-1484.749267578125	595.6129760742188	-180.8205108642578	-1206.338256835938	543.6073608398438	-460.42919921875	-1480.161254882812	556.0001220703125	-175.3131561279297	-1156.79638671875	416.0535278320312	-465.0823059082031	-1145.4013671875	317.0531005859375	-454.0169677734375	-1576.094360351562	478.2423706054688	-165.2694091796875	-1021.077575683594	133.297607421875	-459.3200378417969	-1602.129760742188	553.947021484375	-160.9213409423828	-1179.909545898438	80.77623748779297	-340.2852783203125	-1670.927612304688	444.9657897949219	-167.0911560058594	-1695.242797851562	520.442138671875	-170.501953125	-1150.537231445312	134.2087860107422	-426.2410278320312	-1863.086181640625	415.5963439941406	-189.7931518554688	-1897.1162109375	223.04150390625	-217.2385406494141	-1870.870483398438	470.8884887695312	-250.5369110107422	-1894.47265625	458.310791015625	-284.2266845703125	-1900.557983398438	474.17431640625	-235.1330261230469	-1190.881469726562	68.91571807861328	-390.1446838378906
79	0.39	-1327.49169921875	1491.846313476562	-482.4415588378906	-1210.665893554688	1475.2568359375	-201.9521484375	-1329.00732421875	1033.547119140625	-474.6095581054688	-1270.212036132812	1013.18212890625	-181.5630798339844	-1269.195922851562	984.1159057617188	-462.177734375	-1184.475341796875	96.306640625	-368.7537841796875	-1221.148559570312	961.441162109375	-211.6657104492188	-1388.836181640625	908.569580078125	-475.6212768554688	-1376.3046875	932.7626342773438	-159.1732635498047	-1393.043212890625	1066.755615234375	-304.2936096191406	-1194.652099609375	684.7969970703125	-501.3089904785156	-1204.999145507812	305.272216796875	-457.5494079589844	-1275.88525390625	658.1788330078125	-494.1803283691406	-1162.510986328125	592.0288696289062	-468.8951721191406	-1901.313232421875	300.1078491210938	-166.5083160400391	-1215.238159179688	403.1486511230469	-472.6429748535156	-1243.366821289062	567.7889404296875	-460.9639282226562	-1346.929321289062	646.2112426757812	-172.0496826171875	-951.1075439453124	180.4174346923828	-407.1759033203125	-1416.987060546875	677.1502685546875	-163.8743896484375	-1387.88525390625	554.0916748046875	-182.5657653808594	-1461.046020507812	589.9795532226562	-180.6467437744141	-1187.139282226562	540.8153076171875	-459.7239990234375	-1455.0732421875	550.5159301757812	-174.6264038085938	-1138.128784179688	412.6287231445312	-463.5888977050781	-1126.08984375	313.7341918945312	-452.0503540039062	-1552.18212890625	475.87939453125	-164.7960662841797	-1003.443603515625	130.3291473388672	-457.4805603027344	-1575.91650390625	552.6827392578125	-161.7343292236328	-1162.130493164062	78.02455139160156	-338.55224609375	-1649.5859375	445.238525390625	-168.1441040039062	-1669.731323242188	521.9961547851562	-171.1939544677734	-1133.0810546875	131.0366058349609	-424.6713256835938	-1841.281372070312	423.038818359375	-190.8589324951172	-1879.072021484375	230.9863433837891	-215.0330200195312	-1847.518432617188	477.9832763671875	-253.8981018066406	-1870.59130859375	465.3141479492188	-285.8495178222656	-1876.132080078125	481.4258422851562	-236.9234008789062	-1173.011108398438	65.64716339111328	-388.6420593261719
